<?xml version="1.0" encoding="utf-8"?>
<!-- Generator: Adobe Illustrator 25.4.1, SVG Export Plug-In . SVG Version: 6.00 Build 0)  -->
<svg version="1.1" id="圖層_1" xmlns="http://www.w3.org/2000/svg" xmlns:xlink="http://www.w3.org/1999/xlink" x="0px" y="0px"
	 viewBox="0 0 21.6 29.8" style="enable-background:new 0 0 21.6 29.8;" xml:space="preserve">
<style type="text/css">
	.st0{fill:#FFFFFF;}
</style>
<g>
	<path class="st0" d="M2.5,13.5v2.2H2.4c-0.1,0-0.2,0-0.3-0.1c-0.1,0-0.2-0.1-0.2-0.2c-0.1-0.1-0.1-0.2-0.2-0.2
		c0-0.1-0.1-0.2-0.1-0.3v-1.4H1l-0.6,0.6v-0.5c0-0.1,0-0.2,0.1-0.2c0.1-0.1,0.1-0.1,0.2-0.1h2.6c0.1,0,0.2,0,0.2,0.1
		s0.1,0.1,0.1,0.2v0.5l-0.6-0.6H2.5z M2.2,13.5H1.9v1.4c0,0.1,0,0.2,0.1,0.3c0.1,0.1,0.1,0.1,0.3,0.2V13.5z"/>
	<path class="st0" d="M8.1,13.2v2.5h-1v-1.1H5.6v1.1H4.7v-2.5h0.9v1.1h1.5v-1.1H8.1z M5.4,13.5H5v1.9h0.4V13.5z M7.8,13.5H7.4v1.9
		h0.4V13.5z"/>
	<path class="st0" d="M10,13.5v0.8h1v0.3h-1v0.8h1.8l0.6-0.6v0.5c0,0,0,0.1,0,0.1c0,0,0,0.1-0.1,0.1c0,0-0.1,0.1-0.1,0.1
		c0,0-0.1,0-0.1,0H9.9H9.1V14c0-0.1,0-0.2,0.1-0.3c0-0.1,0.1-0.2,0.2-0.2c0.1-0.1,0.2-0.1,0.3-0.2c0.1,0,0.2-0.1,0.3-0.1h0h2.2
		c0.1,0,0.1,0,0.1,0c0,0,0.1,0,0.1,0.1c0,0,0.1,0.1,0.1,0.1c0,0,0,0.1,0,0.1v0.5l-0.6-0.6H10z M9.7,13.5c-0.1,0-0.2,0.1-0.3,0.2
		c-0.1,0.1-0.1,0.2-0.1,0.3v1.4h0.4V13.5z"/>
	<path class="st0" d="M1.4,16.3v0.8h1v0.3h-1v1.1H0.4v-1.7c0-0.1,0-0.2,0.1-0.3c0-0.1,0.1-0.2,0.2-0.2s0.2-0.1,0.3-0.2
		C1,16,1.1,16,1.2,16h2.2c0.1,0,0.1,0,0.1,0c0,0,0.1,0,0.1,0.1c0,0,0.1,0.1,0.1,0.1s0,0.1,0,0.1v0.5l-0.6-0.6H1.4z M1.1,16.3
		c-0.1,0-0.2,0.1-0.3,0.2c-0.1,0.1-0.1,0.2-0.1,0.3v1.4h0.4V16.3z"/>
	<path class="st0" d="M5.7,18.4H4.8v-1.7c0-0.1,0-0.2,0.1-0.3c0-0.1,0.1-0.2,0.2-0.2s0.2-0.1,0.2-0.2C5.4,16,5.5,16,5.6,16h0.1V18.4
		z M5.1,18.2h0.4v-1.9c-0.1,0-0.2,0.1-0.3,0.2c-0.1,0.1-0.1,0.2-0.1,0.3V18.2z"/>
	<path class="st0" d="M10.2,18.4H9.7c-0.1,0-0.2,0-0.2-0.1c-0.1-0.1-0.1-0.1-0.1-0.2V18l-0.6-0.6l-1,0v1.1H6.7v-1.7
		c0-0.1,0-0.2,0.1-0.3c0-0.1,0.1-0.2,0.2-0.2s0.2-0.1,0.2-0.2C7.3,16,7.4,16,7.5,16h1.8c0.1,0,0.2,0,0.3,0.1c0.1,0,0.2,0.1,0.2,0.1
		c0.1,0.1,0.1,0.1,0.1,0.2c0,0.1,0.1,0.2,0.1,0.3c0,0.1,0,0.2-0.1,0.3c0,0.1-0.1,0.2-0.1,0.2c-0.1,0.1-0.1,0.1-0.2,0.1
		c-0.1,0-0.2,0.1-0.3,0.1H9.1l0.9,0.8h0L10.2,18.4z M7.4,16.3c-0.1,0-0.2,0.1-0.3,0.2C7.1,16.5,7,16.6,7,16.8v1.4h0.4V16.3z
		 M7.7,17.1h1.7c0.1,0,0.1,0,0.2,0c0,0,0.1-0.1,0.1-0.1c0,0,0.1-0.1,0.1-0.1c0,0,0-0.1,0-0.2c0-0.1,0-0.1,0-0.2c0,0,0-0.1-0.1-0.1
		c0,0-0.1-0.1-0.1-0.1c0,0-0.1,0-0.2,0H7.7V17.1z"/>
	<path class="st0" d="M12.1,16.3v0.8h1.7c0.1,0,0.2,0,0.3,0.1c0.1,0,0.2,0.1,0.2,0.1c0.1,0.1,0.1,0.1,0.1,0.2c0,0.1,0.1,0.2,0.1,0.3
		c0,0.1,0,0.2-0.1,0.3s-0.1,0.2-0.1,0.2c-0.1,0.1-0.1,0.1-0.2,0.1c-0.1,0-0.2,0.1-0.3,0.1h-2.2c-0.1,0-0.2,0-0.2-0.1
		c-0.1-0.1-0.1-0.1-0.1-0.2v-0.5l0.6,0.6h1.8v-0.8h-1.7c-0.1,0-0.2,0-0.3-0.1c-0.1,0-0.2-0.1-0.2-0.1c-0.1-0.1-0.1-0.1-0.1-0.2
		s-0.1-0.2-0.1-0.3c0-0.1,0-0.2,0.1-0.3c0-0.1,0.1-0.2,0.1-0.2c0.1-0.1,0.1-0.1,0.2-0.1c0.1,0,0.2-0.1,0.3-0.1h2.2
		c0.1,0,0.2,0,0.2,0.1c0.1,0.1,0.1,0.1,0.1,0.2v0.5l-0.6-0.6H12.1z M11.8,16.3c-0.1,0-0.2,0.1-0.2,0.1s-0.1,0.2-0.1,0.3
		c0,0.1,0,0.2,0.1,0.3c0.1,0.1,0.2,0.1,0.2,0.1V16.3z M13.8,18.2c0.1,0,0.2-0.1,0.2-0.1c0.1-0.1,0.1-0.2,0.1-0.3
		c0-0.1,0-0.2-0.1-0.3c-0.1-0.1-0.2-0.1-0.2-0.1V18.2z"/>
	<path class="st0" d="M17.6,16.3v2.2h-0.1c-0.1,0-0.2,0-0.3-0.1s-0.2-0.1-0.2-0.2c-0.1-0.1-0.1-0.2-0.2-0.2c0-0.1-0.1-0.2-0.1-0.3
		v-1.4h-0.6l-0.6,0.6v-0.5c0-0.1,0-0.2,0.1-0.2c0.1-0.1,0.1-0.1,0.2-0.1h2.6c0.1,0,0.2,0,0.2,0.1c0.1,0.1,0.1,0.1,0.1,0.2v0.5
		l-0.6-0.6H17.6z M17.3,16.3h-0.4v1.4c0,0.1,0,0.2,0.1,0.3c0.1,0.1,0.1,0.1,0.3,0.2V16.3z"/>
	<path class="st0" d="M3.7,18.8v2.5H2.8l-0.6-0.7l-0.7,0.7h-1v-1.6v-0.3v-0.2c0-0.1,0-0.2,0.1-0.2c0.1-0.1,0.1-0.1,0.2-0.1h0.5
		l-0.6,0.6v1.4l1-1l1,1v-1.3c0-0.1,0-0.2,0.1-0.3S2.9,19.1,3,19c0.1-0.1,0.2-0.1,0.2-0.2c0.1,0,0.2-0.1,0.3-0.1H3.7z M1.9,20.4
		l-0.2-0.2l-0.8,0.8h0.4L1.9,20.4z M3.4,19.1c-0.1,0-0.2,0.1-0.3,0.2C3.1,19.3,3,19.4,3,19.5v1.4h0.4V19.1z"/>
	<path class="st0" d="M7.3,18.8c0.1,0,0.2,0,0.3,0.1c0.1,0,0.2,0.1,0.3,0.2C7.9,19.1,8,19.1,8,19.2c0,0.1,0.1,0.2,0.1,0.3v0.9
		c0,0.1,0,0.2-0.1,0.3c0,0.1-0.1,0.2-0.2,0.2c-0.1,0.1-0.2,0.1-0.3,0.2c-0.1,0-0.2,0.1-0.3,0.1H5.5c-0.1,0-0.2,0-0.3-0.1
		c-0.1,0-0.2-0.1-0.3-0.2c-0.1-0.1-0.1-0.2-0.2-0.2c0-0.1-0.1-0.2-0.1-0.3v-0.9c0-0.1,0-0.2,0.1-0.3c0-0.1,0.1-0.2,0.2-0.2
		c0.1-0.1,0.2-0.1,0.3-0.2c0.1,0,0.2-0.1,0.3-0.1H7.3L7.3,18.8z M5.4,19.1c-0.1,0-0.2,0.1-0.3,0.2C5,19.3,5,19.4,5,19.5v0.9
		c0,0.1,0,0.2,0.1,0.3c0.1,0.1,0.2,0.1,0.3,0.2V19.1z M7.1,20.9V19H5.6v1.9H7.1z M7.8,19.5c0-0.1,0-0.2-0.1-0.3
		c-0.1-0.1-0.2-0.1-0.3-0.2v1.9c0.1,0,0.2-0.1,0.3-0.2c0.1-0.1,0.1-0.2,0.1-0.3V19.5z"/>
	<path class="st0" d="M12.5,18.8v2.5h-0.1c-0.1,0-0.2,0-0.3-0.1c-0.1,0-0.2-0.1-0.3-0.2c-0.1-0.1-0.1-0.2-0.2-0.2
		c0-0.1-0.1-0.2-0.1-0.3v-1.3l-1.1,1l-1.1-1v1.4l0.6,0.6H9.4c-0.1,0-0.1,0-0.1,0c0,0-0.1,0-0.1-0.1c0,0-0.1-0.1-0.1-0.1
		c0,0,0-0.1,0-0.1v-2.1h1l0.8,0.7l0.7-0.7H12.5z M10.6,19.6L10,19H9.6l0.8,0.8L10.6,19.6z M12.2,19h-0.4v1.4c0,0.1,0,0.2,0.1,0.3
		c0.1,0.1,0.2,0.1,0.3,0.2V19z"/>
	<path class="st0" d="M16.6,18.8v2.5h-0.9v-1.1h-1.1L14,20.7v0.2c0,0.1,0,0.2-0.1,0.2c-0.1,0.1-0.1,0.1-0.2,0.1h-0.5l2.2-2.5H16.6z
		 M15.7,19.8V19h-0.1l-0.7,0.8H15.7z M16.3,19H16l0,1.9h0.3V19z"/>
	<path class="st0" d="M20.6,18.8c0.1,0,0.1,0,0.1,0c0,0,0.1,0,0.1,0.1c0,0,0.1,0.1,0.1,0.1c0,0,0,0.1,0,0.1v2.1l-2.4-2.1v2.1h-0.1
		c-0.1,0-0.2,0-0.3-0.1c-0.1,0-0.2-0.1-0.3-0.2s-0.1-0.1-0.2-0.2c0-0.1-0.1-0.2-0.1-0.3v-1.7h0.9l2.1,1.9v-1.3l-0.6-0.5H20.6z
		 M18.3,19h-0.4v1.5c0,0.1,0,0.2,0.1,0.3c0.1,0.1,0.2,0.1,0.3,0.2V19z"/>
</g>
<g>
	<path class="st0" d="M1.9,6.5v1.9h1.4v0.7H1.9v1.9h2.5l0.8-1.4v1.2c0,0.1,0,0.2,0,0.3c0,0.1-0.1,0.2-0.1,0.3c0,0.1-0.1,0.1-0.2,0.2
		c-0.1,0-0.1,0.1-0.2,0.1h-3H0.6V7.7c0-0.3,0-0.5,0.1-0.7c0.1-0.2,0.1-0.4,0.2-0.6C1,6.2,1.1,6.1,1.3,6c0.1-0.1,0.3-0.1,0.4-0.1h0h3
		c0.1,0,0.1,0,0.2,0.1C4.9,5.9,5,6,5,6.1c0,0.1,0.1,0.2,0.1,0.3c0,0.1,0,0.2,0,0.3v1.2L4.3,6.5H1.9z"/>
	<path class="st0" d="M11,5.8v5.9H9.4l-3-5.9h0.7c0.1,0,0.2,0.1,0.3,0.2c0.1,0.2,0.1,0.4,0.1,0.6V7l2.1,4.1h0.1V5.8H11z"/>
	<path class="st0" d="M13.6,6.5v1.9H15v0.7h-1.4v1.9h2.5l0.8-1.4v1.2c0,0.1,0,0.2,0,0.3c0,0.1-0.1,0.2-0.1,0.3
		c0,0.1-0.1,0.1-0.2,0.2c-0.1,0-0.1,0.1-0.2,0.1h-3h-1.1V7.7c0-0.3,0-0.5,0.1-0.7c0.1-0.2,0.1-0.4,0.2-0.6C12.8,6.2,12.9,6.1,13,6
		c0.1-0.1,0.3-0.1,0.4-0.1h0h3c0.1,0,0.1,0,0.2,0.1c0.1,0,0.1,0.1,0.2,0.2c0,0.1,0.1,0.2,0.1,0.3c0,0.1,0,0.2,0,0.3v1.2l-0.8-1.4
		H13.6z"/>
</g>
</svg>
