<?xml version="1.0" encoding="utf-8"?>
<!-- Generator: Adobe Illustrator 25.4.1, SVG Export Plug-In . SVG Version: 6.00 Build 0)  -->
<svg version="1.1" id="圖層_1" xmlns="http://www.w3.org/2000/svg" xmlns:xlink="http://www.w3.org/1999/xlink" x="0px" y="0px"
	 viewBox="0 0 21.6 29.8" style="enable-background:new 0 0 21.6 29.8;" xml:space="preserve">
<style type="text/css">
	.st0{fill:#FFFFFF;}
	.st1{fill:none;stroke:#FFFFFF;stroke-width:0.25;stroke-linecap:round;stroke-linejoin:round;stroke-miterlimit:10;}
</style>
<g>
	<g>
		<path class="st0" d="M6.7,22H1.8c-0.1,0-0.2,0-0.3-0.1c-0.1-0.1-0.1-0.2-0.1-0.3v-9.5h5v1.4H3.1v2.8h3.1v1.4H3.1v3h3.6V22z"/>
		<path class="st0" d="M9.1,12.5l1.5,6.6l0,0.5h0.1l0-0.5l1.6-7h1.7L11.5,22h-1.2c-0.3,0-0.4-0.1-0.5-0.4l-2.5-9.5h1.2
			C8.8,12.1,9,12.2,9.1,12.5z"/>
		<path class="st0" d="M20.4,22h-4.9c-0.1,0-0.2,0-0.3-0.1c-0.1-0.1-0.1-0.2-0.1-0.3v-9.5h5v1.4h-3.3v2.8h3.1v1.4h-3.1v3h3.6V22z"/>
	</g>
	<g>
		<path class="st0" d="M1.6,23.8v-1h0.7v1h0.6v0.6H2.2v1.2c0,0.2,0,0.3,0.2,0.4c0.1,0.1,0.2,0.1,0.4,0.1c0.1,0,0.1,0,0.2,0l0.2,0.5
			c-0.1,0-0.3,0.1-0.4,0.1c-0.3,0-0.6-0.1-0.8-0.3c-0.2-0.2-0.4-0.5-0.4-0.8v-1.2H1.5L1.6,23.8L1.6,23.8z"/>
		<path class="st0" d="M5.8,24.8v1.9H5.1v-1.9c0-0.1,0-0.3-0.1-0.3c-0.1-0.1-0.2-0.1-0.3-0.1c-0.1,0-0.3,0-0.4,0.1
			c-0.1,0.1-0.2,0.2-0.2,0.3v1.9H3.4v-4.1h0.7v1.4c0.3-0.2,0.5-0.3,0.8-0.3C5.5,23.8,5.8,24.1,5.8,24.8z"/>
		<path class="st0" d="M8.6,26c0,0.3-0.1,0.5-0.4,0.6c-0.2,0.1-0.5,0.2-0.8,0.2c-0.3,0-0.6-0.1-0.8-0.3c-0.2-0.2-0.4-0.5-0.4-0.8
			v-0.8c0-0.4,0.1-0.6,0.4-0.8c0.2-0.2,0.5-0.3,0.8-0.3c0.3,0,0.6,0.1,0.8,0.2c0.2,0.2,0.4,0.4,0.4,0.7v0.6l-1.7,0.2v0.1
			c0,0.2,0.1,0.3,0.2,0.4c0.1,0.1,0.2,0.2,0.4,0.2c0.1,0,0.3,0,0.4-0.1c0.1,0,0.2-0.1,0.2-0.2H8.6z M6.8,25l1-0.1v-0.1
			c0-0.1-0.1-0.2-0.2-0.3c-0.1-0.1-0.2-0.1-0.4-0.1c-0.1,0-0.3,0-0.4,0.1C6.9,24.6,6.8,24.7,6.8,25L6.8,25z"/>
	</g>
	<g>
		<path class="st0" d="M1.8,27.7l0.4,1.1l0,0.1h0l0-0.1l0.4-1.1h0.6l0.4,1.1l0,0.1h0l0-0.1l0.4-1.2h0.6l-0.7,2H3.6
			c-0.1,0-0.2,0-0.2-0.1L3,28.4l0-0.1h0l0,0.1l-0.4,1.2H1.9l-0.7-2h0.4C1.7,27.6,1.8,27.7,1.8,27.7z"/>
		<path class="st0" d="M5,28.3c0-0.2,0.1-0.4,0.3-0.6c0.2-0.1,0.5-0.2,0.7-0.2s0.5,0.1,0.7,0.2c0.2,0.1,0.3,0.3,0.3,0.6v0.5
			c0,0.2-0.1,0.4-0.3,0.5c-0.2,0.1-0.5,0.2-0.7,0.2s-0.5-0.1-0.7-0.2C5.1,29.3,5,29.1,5,28.9V28.3z M6.5,28.3c0-0.1,0-0.2-0.1-0.3
			C6.3,28,6.2,28,6.1,28s-0.2,0-0.3,0.1c-0.1,0.1-0.1,0.2-0.1,0.3v0.5c0,0.1,0,0.2,0.1,0.3c0.1,0.1,0.2,0.1,0.3,0.1s0.2,0,0.3-0.1
			c0.1-0.1,0.1-0.2,0.1-0.3V28.3z"/>
		<path class="st0" d="M7.5,27.6h0.6l0,0.1c0.2-0.1,0.5-0.2,0.7-0.2c0.3,0,0.5,0.1,0.6,0.2c0.2-0.2,0.5-0.2,0.8-0.2
			c0.4,0,0.7,0.2,0.7,0.7v1.3h-0.6v-1.3c0-0.1,0-0.2-0.1-0.2C10.1,28,10,28,9.9,28c-0.1,0-0.2,0-0.3,0.1c-0.1,0.1-0.1,0.1-0.1,0.2
			v1.3H8.9v-1.3c0-0.1,0-0.2-0.1-0.2C8.7,28,8.7,28,8.6,28c-0.1,0-0.2,0-0.3,0.1c-0.1,0.1-0.1,0.1-0.1,0.2v1.3H7.5V27.6z"/>
		<path class="st0" d="M12.2,27.6c0.3,0,0.5,0.1,0.7,0.2c0.2,0.1,0.3,0.2,0.3,0.4v1.1c0,0,0,0.1,0,0.1c0,0.1,0,0.1,0,0.1l0,0.1h-0.6
			l0-0.1c-0.1,0.1-0.3,0.2-0.6,0.2c-0.2,0-0.4,0-0.6-0.1c-0.2-0.1-0.2-0.2-0.2-0.4c0-0.1,0-0.2,0.1-0.3c0.1-0.1,0.2-0.1,0.3-0.2
			c0.1,0,0.2-0.1,0.3-0.1c0.1,0,0.2-0.1,0.3-0.1c0.1,0,0.2-0.1,0.3-0.1c0.1,0,0.1-0.1,0.1-0.1c0-0.1,0-0.1-0.1-0.1
			c-0.1,0-0.2-0.1-0.3-0.1c-0.1,0-0.2,0-0.2,0c-0.1,0-0.1,0.1-0.1,0.1h-0.6c0-0.2,0.1-0.3,0.3-0.4C11.7,27.6,11.9,27.6,12.2,27.6z
			 M12.5,29v-0.4c0,0-0.1,0-0.2,0.1c-0.1,0-0.2,0.1-0.2,0.1c0,0-0.1,0-0.2,0.1s-0.1,0.1-0.1,0.1c0,0,0,0.1,0,0.1
			c0,0.1,0.1,0.2,0.3,0.2c0.1,0,0.2,0,0.3-0.1C12.5,29.1,12.5,29.1,12.5,29z"/>
		<path class="st0" d="M15.6,28.3v1.3H15v-1.3c0-0.1,0-0.2-0.1-0.2c-0.1,0-0.2-0.1-0.3-0.1c-0.1,0-0.2,0-0.3,0.1
			c-0.1,0.1-0.2,0.1-0.2,0.2v1.3h-0.6v-2h0.6l0,0.2c0.2-0.1,0.5-0.2,0.8-0.2C15.4,27.6,15.6,27.8,15.6,28.3z"/>
		<path class="st0" d="M18,27.6c0.3,0,0.5,0.1,0.7,0.2c0.2,0.1,0.3,0.2,0.3,0.4v1.1c0,0,0,0.1,0,0.1c0,0.1,0,0.1,0,0.1l0,0.1h-0.6
			l0-0.1c-0.1,0.1-0.3,0.2-0.6,0.2c-0.2,0-0.4,0-0.6-0.1c-0.2-0.1-0.2-0.2-0.2-0.4c0-0.1,0-0.2,0.1-0.3c0.1-0.1,0.2-0.1,0.3-0.2
			c0.1,0,0.2-0.1,0.3-0.1c0.1,0,0.2-0.1,0.3-0.1c0.1,0,0.2-0.1,0.3-0.1c0.1,0,0.1-0.1,0.1-0.1c0-0.1,0-0.1-0.1-0.1
			C18.2,28,18.1,28,18,28c-0.1,0-0.2,0-0.2,0c-0.1,0-0.1,0.1-0.1,0.1h-0.6c0-0.2,0.1-0.3,0.3-0.4C17.5,27.6,17.8,27.6,18,27.6z
			 M18.4,29v-0.4c0,0-0.1,0-0.2,0.1c-0.1,0-0.2,0.1-0.2,0.1c0,0-0.1,0-0.2,0.1s-0.1,0.1-0.1,0.1c0,0,0,0.1,0,0.1
			c0,0.1,0.1,0.2,0.3,0.2c0.1,0,0.2,0,0.3-0.1C18.3,29.1,18.3,29.1,18.4,29z"/>
		<path class="st0" d="M19.4,27.2c-0.1,0-0.1-0.1-0.1-0.2c0-0.1,0-0.1,0.1-0.2c0.1,0,0.2-0.1,0.3-0.1c0.1,0,0.2,0,0.3,0.1
			c0.1,0,0.1,0.1,0.1,0.2c0,0.1,0,0.1-0.1,0.2c-0.1,0-0.2,0.1-0.3,0.1C19.6,27.3,19.5,27.3,19.4,27.2z M19.4,27.6H20v2h-0.6V27.6z"
			/>
	</g>
	<g>
		<path class="st0" d="M10.6,24.4L10.6,24.4l-0.1-0.6h0.1v-0.1c0-0.3,0.1-0.6,0.4-0.8c0.2-0.2,0.5-0.3,0.8-0.3c0.1,0,0.3,0,0.4,0.1
			L12,23.2c-0.1,0-0.1,0-0.2,0c-0.1,0-0.3,0-0.4,0.1c-0.1,0.1-0.2,0.2-0.2,0.4v0.1h0.6v0.6h-0.6v2.3h-0.7V24.4z"/>
		<path class="st0" d="M12.4,23.3c-0.1-0.1-0.1-0.2-0.1-0.3c0-0.1,0-0.2,0.1-0.3c0.1-0.1,0.2-0.1,0.3-0.1c0.1,0,0.2,0,0.3,0.1
			c0.1,0.1,0.1,0.2,0.1,0.3c0,0.1,0,0.2-0.1,0.3c-0.1,0.1-0.2,0.1-0.3,0.1C12.5,23.4,12.4,23.3,12.4,23.3z M12.3,23.9H13v2.9h-0.7
			V23.9z"/>
		<path class="st0" d="M15.7,24.8H15c0-0.1,0-0.3-0.1-0.3c-0.1-0.1-0.1-0.1-0.2-0.1c-0.1,0-0.2,0.1-0.3,0.2
			c-0.1,0.1-0.1,0.2-0.1,0.4v1.8h-0.7v-2.9h0.6l0,0.2c0.2-0.2,0.5-0.3,0.8-0.3C15.4,23.8,15.7,24.1,15.7,24.8z"/>
		<path class="st0" d="M17.1,23.8c0.3,0,0.5,0.1,0.7,0.2c0.2,0.1,0.3,0.4,0.3,0.6h-0.7c0-0.1,0-0.2-0.1-0.2c-0.1,0-0.2-0.1-0.3-0.1
			c-0.1,0-0.2,0-0.3,0.1c-0.1,0.1-0.1,0.1-0.1,0.2c0,0.1,0.1,0.2,0.2,0.2c0.1,0.1,0.2,0.1,0.4,0.2c0.1,0,0.3,0.1,0.5,0.2
			c0.2,0.1,0.3,0.2,0.4,0.3s0.2,0.3,0.2,0.5c0,0.3-0.1,0.5-0.3,0.6c-0.2,0.2-0.5,0.2-0.8,0.2c-0.3,0-0.6-0.1-0.8-0.2
			c-0.2-0.2-0.3-0.4-0.3-0.7h0.7c0,0.1,0,0.2,0.1,0.3c0.1,0.1,0.2,0.1,0.3,0.1c0.3,0,0.4-0.1,0.4-0.3c0-0.1-0.1-0.2-0.2-0.3
			c-0.1-0.1-0.2-0.1-0.4-0.2c-0.1,0-0.3-0.1-0.4-0.1c-0.1-0.1-0.3-0.1-0.4-0.2C16.1,25,16,24.9,16,24.7c0-0.2,0.1-0.5,0.3-0.6
			C16.6,23.9,16.8,23.8,17.1,23.8z"/>
		<path class="st0" d="M18.6,23.8v-1h0.7v1h0.6v0.6h-0.6v1.2c0,0.2,0,0.3,0.2,0.4c0.1,0.1,0.2,0.1,0.4,0.1c0.1,0,0.1,0,0.2,0
			l0.2,0.5c-0.1,0-0.3,0.1-0.4,0.1c-0.3,0-0.6-0.1-0.8-0.3c-0.2-0.2-0.4-0.5-0.4-0.8v-1.2h-0.1L18.6,23.8L18.6,23.8z"/>
	</g>
	<g>
		<polygon class="st1" points="6.2,5 8.2,6.8 8.4,6.2 		"/>
		<polygon class="st1" points="3.4,5.8 1.7,5 3.6,6.9 		"/>
		<polygon class="st1" points="1.7,5 1.5,4.9 3.6,6.9 		"/>
		<polygon class="st1" points="6.8,9.1 6.7,9.1 7.6,10.7 		"/>
		<polygon class="st1" points="3.6,6.9 1.5,4.9 4.5,8.8 		"/>
		<polygon class="st1" points="4,5.5 3.6,6.9 5.4,7.7 		"/>
		<polygon class="st1" points="3.6,6.9 4.5,8.8 5.4,7.7 		"/>
		<polygon class="st1" points="5.9,4 4,5.5 6.2,5 		"/>
		<polygon class="st1" points="9.4,5.2 9.7,6.1 10.2,4.4 		"/>
		<polygon class="st1" points="4.6,0.2 3.3,3.6 5.9,4 		"/>
		<polygon class="st1" points="4,5.5 5.4,7.7 6.2,5 		"/>
		<polygon class="st1" points="5.4,7.7 6.7,9.1 6.8,9.1 		"/>
		<polygon class="st1" points="5.4,7.7 4.5,8.8 6.7,9.1 		"/>
		<polygon class="st1" points="4.5,8.8 5.8,10.4 6.7,9.1 		"/>
		<polygon class="st1" points="4.6,0.2 5.9,4 7.8,2.1 		"/>
		<polygon class="st1" points="5.4,7.7 8.1,7.3 8.2,6.8 		"/>
		<polygon class="st1" points="9.4,5.2 9.4,6 9.7,6.1 		"/>
		<polygon class="st1" points="9.4,3.8 9.4,5.2 10.2,4.4 		"/>
		<polygon class="st1" points="5.4,7.7 6.8,9.1 8.1,7.3 		"/>
		<polygon class="st1" points="8.8,5 9.4,5.2 9.4,3.8 		"/>
		<polygon class="st1" points="6.2,5 5.4,7.7 8.2,6.8 		"/>
		<polygon class="st1" points="5.9,4 6.2,5 8.8,5 		"/>
		<polygon class="st1" points="6.2,5 8.4,6.2 8.8,5 		"/>
		<polygon class="st1" points="8.4,6.2 8.2,6.8 9.4,6 		"/>
		<polygon class="st1" points="8.8,5 8.4,6.2 9.4,6 		"/>
		<polygon class="st1" points="8.8,5 9.4,6 9.4,5.2 		"/>
		<polygon class="st1" points="9.4,6 8.2,6.8 9.7,6.1 		"/>
		<polygon class="st1" points="8.2,6.8 8.1,7.3 9.7,6.1 		"/>
		<polygon class="st1" points="6.8,9.1 7.6,10.7 9.8,9.4 		"/>
		<polygon class="st1" points="8.1,7.3 6.8,9.1 9.8,9.4 		"/>
		<polygon class="st1" points="9.7,6.1 8.1,7.3 9.8,9.4 		"/>
		<polygon class="st1" points="9.4,3.8 13.1,3.3 13.3,2.2 		"/>
		<polygon class="st1" points="17.9,5.1 18.5,7.5 19.8,4.7 		"/>
		<polygon class="st1" points="12.2,10.5 9.8,9.4 12.5,11.6 		"/>
		<polygon class="st1" points="9.8,9.4 7.6,10.7 12.5,11.6 		"/>
		<polygon class="st1" points="7.8,2.1 9.4,3.8 13.3,2.2 		"/>
		<polygon class="st1" points="10.2,4.4 9.7,6.1 12.9,3.9 		"/>
		<polygon class="st1" points="10.2,4.4 12.9,3.9 13.1,3.3 		"/>
		<polygon class="st1" points="9.4,3.8 10.2,4.4 13.1,3.3 		"/>
		<polygon class="st1" points="14.3,5.1 9.7,6.1 14.9,7 		"/>
		<polygon class="st1" points="9.7,6.1 9.8,9.4 13.4,9.2 		"/>
		<polygon class="st1" points="9.8,9.4 12.2,10.5 13.4,9.2 		"/>
		<polygon class="st1" points="12.9,3.9 9.7,6.1 14.3,5.1 		"/>
		<polygon class="st1" points="9.7,6.1 13.4,9.2 14.9,7 		"/>
		<polygon class="st1" points="12.9,3.9 14.3,5.1 15.1,4.3 		"/>
		<polygon class="st1" points="16.2,5.5 14.9,7 17.3,6.4 		"/>
		<polygon class="st1" points="15.1,4.3 14.3,5.1 16.2,5.5 		"/>
		<polygon class="st1" points="14.3,5.1 14.9,7 16.2,5.5 		"/>
		<polygon class="st1" points="16.9,0.2 15.1,4.3 17.9,5.1 		"/>
		<polygon class="st1" points="14.9,7 13.4,9.2 17.6,9.3 		"/>
		<polygon class="st1" points="17.3,6.4 14.9,7 17.6,9.3 		"/>
		<polygon class="st1" points="16.2,5.5 17.3,6.4 17.9,5.1 		"/>
		<polygon class="st1" points="17.9,5.1 17.3,6.4 18.5,7.5 		"/>
	</g>
</g>
</svg>
